<?xml version="1.0" encoding="UTF-8" standalone="no"?>
<!-- Created with Inkscape (http://www.inkscape.org/) -->

<svg
   xmlns:dc="http://purl.org/dc/elements/1.1/"
   xmlns:cc="http://creativecommons.org/ns#"
   xmlns:rdf="http://www.w3.org/1999/02/22-rdf-syntax-ns#"
   xmlns:svg="http://www.w3.org/2000/svg"
   xmlns="http://www.w3.org/2000/svg"
   xmlns:sodipodi="http://sodipodi.sourceforge.net/DTD/sodipodi-0.dtd"
   xmlns:inkscape="http://www.inkscape.org/namespaces/inkscape"
   width="511.99997"
   height="511.99997"
   viewBox="0 0 135.46666 135.46666"
   version="1.1"
   id="svg8"
   inkscape:version="0.92.4 (unknown)"
   sodipodi:docname="cosmopolitan-mascot.svg"
   inkscape:export-filename="/home/jp/Desktop/logo-meetup.png"
   inkscape:export-xdpi="114.87946"
   inkscape:export-ydpi="114.87946">
  <defs
     id="defs2">
    <inkscape:path-effect
       effect="bspline"
       id="path-effect1095"
       is_visible="true"
       weight="33.333333"
       steps="2"
       helper_size="0"
       apply_no_weight="true"
       apply_with_weight="true"
       only_selected="false" />
    <inkscape:path-effect
       effect="bspline"
       id="path-effect1072"
       is_visible="true"
       weight="33.333333"
       steps="2"
       helper_size="0"
       apply_no_weight="true"
       apply_with_weight="true"
       only_selected="false" />
    <inkscape:path-effect
       effect="bspline"
       id="path-effect1009"
       is_visible="true"
       weight="33.333333"
       steps="2"
       helper_size="0"
       apply_no_weight="true"
       apply_with_weight="true"
       only_selected="false" />
    <inkscape:path-effect
       effect="bspline"
       id="path-effect1003"
       is_visible="true"
       weight="33.333333"
       steps="2"
       helper_size="0"
       apply_no_weight="true"
       apply_with_weight="true"
       only_selected="false" />
    <inkscape:path-effect
       effect="bspline"
       id="path-effect991"
       is_visible="true"
       weight="33.333333"
       steps="2"
       helper_size="0"
       apply_no_weight="true"
       apply_with_weight="true"
       only_selected="false" />
    <inkscape:path-effect
       effect="bspline"
       id="path-effect987"
       is_visible="true"
       weight="33.333333"
       steps="2"
       helper_size="0"
       apply_no_weight="true"
       apply_with_weight="true"
       only_selected="false" />
    <inkscape:path-effect
       effect="bspline"
       id="path-effect983"
       is_visible="true"
       weight="33.333333"
       steps="2"
       helper_size="0"
       apply_no_weight="true"
       apply_with_weight="true"
       only_selected="false" />
    <inkscape:path-effect
       effect="bspline"
       id="path-effect979"
       is_visible="true"
       weight="33.333333"
       steps="2"
       helper_size="0"
       apply_no_weight="true"
       apply_with_weight="true"
       only_selected="false" />
    <inkscape:path-effect
       effect="bspline"
       id="path-effect971"
       is_visible="true"
       weight="33.333333"
       steps="2"
       helper_size="0"
       apply_no_weight="true"
       apply_with_weight="true"
       only_selected="false" />
    <inkscape:path-effect
       effect="bspline"
       id="path-effect967"
       is_visible="true"
       weight="33.333333"
       steps="2"
       helper_size="0"
       apply_no_weight="true"
       apply_with_weight="true"
       only_selected="false" />
    <inkscape:path-effect
       effect="bspline"
       id="path-effect942"
       is_visible="true"
       weight="33.333333"
       steps="2"
       helper_size="0"
       apply_no_weight="true"
       apply_with_weight="true"
       only_selected="false" />
    <inkscape:path-effect
       effect="bspline"
       id="path-effect934"
       is_visible="true"
       weight="33.333333"
       steps="2"
       helper_size="0"
       apply_no_weight="true"
       apply_with_weight="true"
       only_selected="false" />
    <inkscape:path-effect
       effect="bspline"
       id="path-effect917"
       is_visible="true"
       weight="33.333333"
       steps="2"
       helper_size="0"
       apply_no_weight="true"
       apply_with_weight="true"
       only_selected="false" />
    <inkscape:path-effect
       effect="bspline"
       id="path-effect830"
       is_visible="true"
       weight="33.333333"
       steps="2"
       helper_size="0"
       apply_no_weight="true"
       apply_with_weight="true"
       only_selected="false" />
  </defs>
  <sodipodi:namedview
     id="base"
     pagecolor="#ffffff"
     bordercolor="#666666"
     borderopacity="1.0"
     inkscape:pageopacity="0.0"
     inkscape:pageshadow="2"
     inkscape:zoom="0.49497475"
     inkscape:cx="309.49135"
     inkscape:cy="55.702353"
     inkscape:document-units="mm"
     inkscape:current-layer="layer1"
     showgrid="false"
     fit-margin-top="0"
     fit-margin-left="0"
     fit-margin-right="0"
     fit-margin-bottom="0"
     inkscape:window-width="1920"
     inkscape:window-height="1000"
     inkscape:window-x="0"
     inkscape:window-y="0"
     inkscape:window-maximized="1"
     inkscape:snap-others="false"
     inkscape:object-nodes="false"
     units="px"
     inkscape:pagecheckerboard="true" />
  <metadata
     id="metadata5">
    <rdf:RDF>
      <cc:Work
         rdf:about="">
        <dc:format>image/svg+xml</dc:format>
        <dc:type
           rdf:resource="http://purl.org/dc/dcmitype/StillImage" />
        <dc:title />
      </cc:Work>
    </rdf:RDF>
  </metadata>
  <g
     inkscape:label="Camada 1"
     inkscape:groupmode="layer"
     id="layer1"
     transform="translate(5.7722998,-21.574108)"
     style="opacity:0.91000001">
    <g
       id="g1118"
       transform="matrix(1.2108885,0,0,1.2108885,-12.576032,-18.405594)">
      <path
         inkscape:export-ydpi="96"
         inkscape:export-xdpi="96"
         sodipodi:nodetypes="ccccccccccccccccccccccccccccccccccccccccccc"
         inkscape:original-d="m 14.59933,85.947543 c -1.842369,1.936863 -3.685003,3.873992 -5.5279016,5.811385 -0.204501,1.165325 -0.4092096,2.330587 -0.6142112,3.496278 1.7961158,2.42571 3.5910378,4.850434 5.3861608,7.276044 2.97186,4.24801 5.943274,8.49602 8.914627,12.74458 -1.031612,0.36973 -2.063364,0.73969 -3.09555,1.10997 0.881289,4.48511 1.762142,8.96963 2.642888,13.45521 2.912409,3.13363 5.824235,6.26718 8.735952,9.40117 3.328484,1.26994 6.745739,2.45103 10.118211,3.67693 5.211792,0.22246 10.423776,0.44519 15.635269,0.66818 3.786399,-1.20292 7.572899,-2.40569 11.358954,-3.60814 1.648288,-0.5793 3.296589,-1.15843 4.944486,-1.73725 7.437829,-2.85059 14.878269,-5.70202 22.317006,-8.55263 4.410022,-1.29201 8.820159,-2.58387 13.229839,-3.8754 -9.754376,1.95957 -19.51041,3.91968 -29.26601,5.87993 -3.296163,1.20248 -6.592385,2.40516 -9.888974,3.60813 -0.49724,-1.52021 -0.994646,-3.03986 -1.492367,-4.5594 0.720368,-1.37574 1.440625,-2.66241 2.16054,-3.99322 -0.534146,-2.22698 -1.068813,-4.45476 -1.603615,-6.68174 -0.222441,-1.38104 -0.445186,-2.76205 -0.668174,-4.14268 0.863185,-1.43661 1.72638,-2.87341 2.589174,-4.30972 1.615018,0.48416 3.22977,0.96859 4.84426,1.45328 1.01923,-0.40674 2.038191,-0.81321 3.056893,-1.21942 1.613842,-1.32078 3.03107,-2.4806 4.546208,-3.72051 0.400294,-1.52188 0.800324,-3.0435 1.200087,-4.56484 -0.266933,-2.38278 -0.534273,-4.811119 -0.801807,-7.21628 -0.328223,-1.303078 -0.656774,-2.606141 -0.985558,-3.908816 -1.182138,-0.591838 -2.364769,-1.183526 -3.547207,-1.774721 1.398913,-0.279239 2.797834,-0.558267 4.19676,-0.837085 -0.221864,-1.858399 -0.443852,-3.715346 -0.666258,-5.573323 0.28988,-2.785023 0.579351,-5.568381 0.868627,-8.352173 C 82.43072,74.74297 81.673376,73.584683 80.915848,72.426779 79.268041,72.047903 77.61979,71.66925 75.971362,71.290883 73.677295,70.956492 71.3835,70.622445 69.089171,70.288623 c -1.492133,-0.69078 -2.984243,-1.381157 -4.476763,-2.071339 -2.873108,-0.423476 -5.74603,-0.846619 -8.619442,-1.269531 -2.026685,0.400672 -4.053324,0.801544 -6.080382,1.202714 -0.668009,0.512077 -1.380627,1.024268 -2.071338,1.536797 -2.250223,0.200274 -4.498774,0.400641 -6.748558,0.601359 -2.093611,1.068948 -4.186957,2.137891 -6.280832,3.207234 -1.982285,0.422976 -3.964234,0.846087 -5.946746,1.269529 -3.586158,2.53919 -7.171469,5.122402 -10.7576,7.684 -1.169226,1.165886 -2.338522,2.331839 -3.50818,3.498157 z"
         inkscape:path-effect="#path-effect830"
         inkscape:connector-curvature="0"
         id="path828"
         d="m 14.262972,86.332813 c -1.506018,1.551587 -3.348652,3.488716 -4.3724541,5.040059 -1.0238023,1.551344 -1.2285106,2.716606 -0.4329966,4.512435 0.7955137,1.795829 2.5904377,4.220553 4.9739277,7.557353 2.38349,3.33681 5.354904,7.58482 6.324952,9.89394 0.970047,2.30911 -0.06171,2.67907 -0.137335,5.10672 -0.07563,2.42765 0.805226,6.91217 2.701819,10.72187 1.896592,3.80971 4.808417,6.94326 7.938346,9.11843 3.12993,2.17517 6.52769,3.4099 10.819873,4.13406 4.292183,0.72416 9.504166,0.94689 14.003144,0.45687 4.498978,-0.49002 8.285478,-1.69279 11.00265,-2.58367 2.717173,-0.89088 4.365473,-1.47001 8.908337,-3.18472 4.542863,-1.71471 11.983304,-4.56614 17.907681,-6.63743 5.924378,-2.0713 10.334514,-3.36315 7.662164,-3.02912 -2.672355,0.33404 -12.428387,2.29415 -18.954263,3.87549 -6.525875,1.58133 -9.822099,2.784 -11.719198,2.62536 -1.897099,-0.15864 -2.394506,-1.67829 -2.273749,-3.12096 0.120756,-1.44267 0.822369,-2.73943 0.915146,-4.51826 0.09278,-1.77884 -0.44189,-4.00662 -0.820506,-5.81064 -0.378617,-1.80402 -0.60136,-3.18503 -0.281151,-4.5937 0.320209,-1.40867 1.183403,-2.84547 2.422301,-3.32136 1.238897,-0.47589 2.85365,0.009 4.170585,0.0474 1.316934,0.0389 2.335895,-0.36758 3.652151,-1.23113 1.316257,-0.86355 2.733482,-2.02337 3.691096,-3.40431 0.957615,-1.38093 1.357645,-2.90255 1.425228,-4.8547 0.06758,-1.95216 -0.202202,-4.380227 -0.500091,-6.234323 C 82.99274,95.044401 82.66419,93.741338 81.908805,92.7942 81.15342,91.847063 79.970789,91.255375 80.079127,90.820102 c 0.108337,-0.435274 1.507258,-0.714303 2.095622,-1.782995 0.588365,-1.068693 0.366377,-2.92564 0.400143,-5.24717 0.03376,-2.321529 0.323235,-5.104888 0.08938,-7.075827 -0.233858,-1.970939 -0.9912,-3.129227 -2.19375,-3.897562 -1.20255,-0.768336 -2.850801,-1.146988 -4.822035,-1.503373 -1.971233,-0.356385 -4.265028,-0.690433 -6.158312,-1.202722 -1.893284,-0.512289 -3.385393,-1.202668 -5.568155,-1.759507 -2.182762,-0.55684 -5.055684,-0.979983 -7.50569,-0.991151 -2.450007,-0.01117 -4.476645,0.389707 -5.828137,0.840921 -1.351492,0.451213 -2.056202,0.974062 -3.526674,1.330562 -1.470473,0.3565 -3.719024,0.556867 -5.890705,1.191631 -2.171682,0.634765 -4.265028,1.703708 -6.303113,2.449916 -2.038086,0.746207 -4.020034,1.169319 -6.799105,2.657935 -2.77907,1.488616 -6.374917,4.057078 -8.752614,5.920795 -2.377696,1.863717 -3.546991,3.029671 -5.053008,4.581258 z"
         style="fill:#c89455;fill-opacity:1;stroke:none;stroke-width:0.26458332px;stroke-linecap:butt;stroke-linejoin:miter;stroke-opacity:1" />
      <path
         inkscape:export-ydpi="96"
         inkscape:export-xdpi="96"
         transform="matrix(1.061022,0,0,1.061022,-1.1905407,-5.9830689)"
         inkscape:original-d="m 22.765022,81.263557 c -0.523139,1.692442 -1.046542,3.385148 -1.570209,5.078122 0.06709,2.294225 0.133899,4.587861 0.200452,6.88219 -0.211347,1.425332 -0.422912,2.850611 -0.634765,4.276313 -0.333892,0.434138 -0.667909,0.890632 -1.002261,1.336346 0.133989,-1.738672 0.267534,-3.474767 0.400905,-5.211757 -0.278096,-1.547947 -0.556547,-3.096135 -0.835218,-4.643808 0.133881,-1.280755 0.267534,-2.583867 0.400905,-3.875407 0.501283,-1.14704 1.002525,-2.316599 1.503391,-3.474503 0.51239,-0.12273 1.024798,-0.245261 1.5368,-0.367496 z"
         inkscape:path-effect="#path-effect1095"
         inkscape:connector-curvature="0"
         id="path1093"
         d="m 22.247391,82.170965 c -0.0057,0.784983 -0.529077,2.477689 -0.757416,4.471318 -0.22834,1.993629 -0.161535,4.287265 -0.233906,6.147075 -0.07237,1.85981 -0.283937,3.285089 -0.554047,4.217015 -0.27011,0.931925 -0.609473,1.384409 -0.709755,0.737937 -0.100282,-0.646473 0.03326,-2.382568 -0.03913,-4.025 -0.07239,-1.642432 -0.350844,-3.19062 -0.423774,-4.604932 -0.07293,-1.414312 0.06186,-2.717306 0.377214,-3.937489 0.315352,-1.220183 0.820651,-2.387987 1.327366,-3.028181 0.506714,-0.640194 1.019121,-0.762726 1.013447,0.02226 z"
         style="fill:#986e42;fill-opacity:1;stroke:none;stroke-width:0.26458332px;stroke-linecap:butt;stroke-linejoin:miter;stroke-opacity:1" />
      <path
         inkscape:export-ydpi="96"
         inkscape:export-xdpi="96"
         sodipodi:nodetypes="ccccccccccccccccccccc"
         transform="matrix(0.62303275,-0.14412915,0.14412915,0.62303275,9.1366061,25.47073)"
         style="fill:#986e42;fill-opacity:1;stroke:none;stroke-width:0.26458332px;stroke-linecap:butt;stroke-linejoin:miter;stroke-opacity:1"
         d="m 25.161892,166.57211 c 2.14925,0.8935 6.447615,2.68044 9.96693,4.04636 3.519315,1.36592 6.259727,2.31089 8.338627,2.6652 2.0789,0.35431 3.496393,0.11806 5.023838,0.0945 1.527446,-0.0236 3.165691,0.16542 4.590923,0.1654 1.425233,-3e-5 2.638078,-0.18904 2.759142,1.57855 0.121063,1.76759 -0.848502,5.48909 -1.738532,7.30123 -0.890029,1.81215 -1.699375,1.71062 -2.852381,1.65197 -1.153007,-0.0587 -2.648743,-0.0744 -4.289951,0.35273 -1.641208,0.42712 -3.426901,1.29694 -5.309096,2.50971 -1.882194,1.21278 -3.85985,2.76788 -6.447601,4.17567 -2.58775,1.40779 -5.784329,2.66752 -8.161071,3.3933 -2.376743,0.72577 -3.932843,0.91727 -4.8399,0.90276 -0.907056,-0.0145 -1.16455,-0.235 -1.567654,-1.58301 -0.403103,-1.34802 -0.951612,-3.82288 -1.422729,-6.64308 -0.471117,-2.8202 -0.864873,-5.986 -0.778225,-8.8129 0.08665,-2.8269 0.653653,-5.31542 1.07886,-7.14224 0.425208,-1.82681 0.708727,-2.99239 1.000105,-3.80339 0.291379,-0.81101 0.590693,-1.26786 1.008454,-1.49971 0.417762,-0.23186 0.954696,-0.23916 1.222852,-0.24281 0.268156,-0.004 0.268159,-0.004 2.417409,0.8898 z"
         id="path993"
         inkscape:connector-curvature="0"
         inkscape:path-effect="#path-effect934"
         inkscape:original-d="m 23.012642,165.67861 c 4.298631,1.78668 8.596996,3.57362 12.895097,5.36082 2.740506,0.94465 5.480918,1.88962 8.22098,2.83482 1.417595,-0.23648 2.835087,-0.47273 4.252232,-0.7087 1.637816,0.18868 3.27606,0.37771 4.913691,0.56696 1.212768,-0.18922 2.425612,-0.37824 3.638021,-0.56696 -0.969858,3.72422 -1.939424,7.44572 -2.910505,11.17144 -0.809331,-0.10182 -1.618676,-0.20335 -2.428412,-0.30463 -1.496311,-0.016 -2.992046,-0.0318 -4.488468,-0.0472 -1.786051,0.86986 -3.571745,1.73968 -5.358016,2.60992 -1.978094,1.55538 -3.955748,3.11048 -5.934022,4.66612 -3.197254,1.25984 -6.393831,2.51958 -9.591145,3.77976 -1.556146,0.19127 -3.112246,0.38277 -4.668766,0.57455 -0.257324,-0.22084 -0.514816,-0.44134 -0.77262,-0.66161 -0.548338,-2.47555 -1.096847,-4.95041 -1.645667,-7.42522 -0.39343,-3.16556 -0.787186,-6.33136 -1.181176,-9.49665 0.567188,-2.48843 1.134193,-4.97695 1.700893,-7.46503 0.283711,-1.16554 0.567229,-2.33112 0.850446,-3.49628 0.299416,-0.45686 0.598727,-0.91371 0.897693,-1.37016 0.536485,-0.008 1.073425,-0.0149 1.609741,-0.0219 z" />
      <path
         inkscape:export-ydpi="96"
         inkscape:export-xdpi="96"
         inkscape:original-d="m 78.033475,88.893182 c -1.558806,-0.891161 -3.117879,-1.782061 -4.677217,-2.672693 -1.870723,1.024323 -3.741507,1.95971 -5.612659,2.939965 -1.692727,2.316461 -3.385148,4.632407 -5.078121,6.949006 1.381337,2.182717 2.851139,4.36514 4.276312,6.5481 0.534821,1.73704 1.069343,3.47424 1.603618,5.21176 -1.42531,1.33621 -2.85061,2.67243 -4.276312,4.00904 -1.915533,0.93536 -3.8306,1.87062 -5.746295,2.80633 1.693252,0.0443 3.474768,0.0888 5.211755,0.13364 3.786021,-2.89526 7.572901,-5.79111 11.358957,-8.68626 1.1138,-0.75747 2.227508,-1.5148 3.340867,-2.27179 0.423325,0.21126 0.846619,0.42291 1.269531,0.63476 0.545804,0.72341 1.091616,1.44745 1.637025,2.17157 0.167317,0.57885 0.334351,1.1579 0.501132,1.73725 0.668639,-0.67978 1.336611,-1.35889 2.00452,-2.03793 0.0114,-1.49194 0.02254,-3.00705 0.03341,-4.51018 -0.08881,-1.48112 -0.177914,-2.962498 -0.267269,-4.44335 -0.411708,-1.147106 -0.823817,-2.294329 -1.236123,-3.441096 -0.411721,-0.891045 -0.823814,-1.782062 -1.23612,-2.672694 -1.035269,-0.801968 -2.071076,-1.603883 -3.107011,-2.405428 z"
         inkscape:path-effect="#path-effect1009"
         inkscape:connector-curvature="0"
         id="path1007"
         d="m 77.771836,88.848677 c -1.297346,-0.846343 -2.85642,-1.737241 -4.580489,-1.687981 -1.72407,0.04926 -3.576544,1.019603 -5.358533,2.667894 -1.781989,1.648291 -3.474411,3.964236 -3.614743,6.203814 -0.140333,2.239578 1.298242,4.442396 2.278232,6.402346 0.979991,1.95995 1.514514,3.69715 1.069159,5.23397 -0.445355,1.53682 -1.870656,2.87304 -3.541252,4.00907 -1.670595,1.13604 -3.58566,2.0713 -3.696897,2.56081 -0.111237,0.48951 1.670248,0.53519 4.431773,-0.89015 2.761524,-1.42534 6.548404,-4.32119 8.998336,-6.14749 2.449931,-1.8263 3.563643,-2.58363 4.331883,-2.85636 0.76824,-0.27274 1.191536,-0.0611 1.675824,0.40649 0.484289,0.46758 1.030102,1.19162 1.386456,1.84304 0.356354,0.65142 0.523388,1.23047 0.941254,1.18021 0.417866,-0.0503 1.085841,-0.72937 1.425321,-1.81486 0.33948,-1.08549 0.350703,-2.6006 0.311726,-4.09272 -0.03898,-1.49211 -0.128082,-2.973491 -0.378633,-4.287421 -0.25055,-1.313931 -0.66266,-2.461153 -1.074673,-3.480043 -0.412014,-1.01889 -0.824108,-1.909906 -1.547849,-2.756133 -0.723741,-0.846228 -1.759548,-1.648143 -3.056895,-2.494486 z"
         style="opacity:0.5;fill:#cbb8a0;fill-opacity:1;stroke:none;stroke-width:0.26458332px;stroke-linecap:butt;stroke-linejoin:miter;stroke-opacity:1" />
      <path
         inkscape:export-ydpi="96"
         inkscape:export-xdpi="96"
         inkscape:original-d="m 58.79007,114.98537 c 1.692971,0.54541 3.38568,1.09109 5.078122,1.63703 2.21616,-1.42557 4.432485,-2.85114 6.648328,-4.27632 0.590404,0.0777 1.180706,0.15565 1.77066,0.23386 1.414026,-0.0225 2.82887,-0.0448 4.242906,-0.0668 1.592443,-0.66831 3.185226,-1.33662 4.777441,-2.00452 0.312018,-0.51243 0.623896,-1.0248 0.935445,-1.5368 -0.53395,-1.20225 -1.486649,-2.3248 -2.230371,-3.4868 -0.213982,-0.49727 -0.428255,-0.99433 -0.642776,-1.4911 -0.534138,0.13334 -1.091086,0.26701 -1.637028,0.40091 -1.002567,0.66829 -2.004255,1.33608 -3.00678,2.00452 -1.436748,1.30307 -2.872883,2.60561 -4.309721,3.90881 -2.795469,1.51456 -5.590125,3.02879 -8.385583,4.54359 -1.024384,0.0554 -2.048801,0.11109 -3.073598,0.16704"
         inkscape:path-effect="#path-effect991"
         inkscape:connector-curvature="0"
         id="path989"
         d="m 58.79007,114.98537 c 1.692868,0.54573 3.385578,1.09141 5.339952,0.65147 1.954374,-0.43994 4.170695,-1.86552 5.573781,-2.53915 1.403085,-0.67364 1.993385,-0.59567 2.995396,-0.56784 1.002011,0.0278 2.416855,0.006 3.92012,-0.33967 1.503264,-0.34522 3.096051,-1.01352 4.048101,-1.60378 0.952049,-0.59026 1.263927,-1.10263 1.069353,-1.90637 -0.194575,-0.80375 -0.980759,-2.03281 -1.459616,-2.86248 -0.478857,-0.82966 -0.693128,-1.32672 -1.067591,-1.5097 -0.374463,-0.18298 -0.930781,-0.0467 -1.705038,0.3543 -0.774257,0.40103 -1.775944,1.06882 -2.995596,2.05455 -1.219651,0.98573 -2.655786,2.28827 -4.771921,3.69719 -2.116134,1.40892 -4.910787,2.92316 -6.820727,3.70834 -1.90994,0.78519 -2.934358,0.84086 -3.959169,0.89656"
         style="fill:#986e42;fill-opacity:1;stroke:none;stroke-width:0.26458332px;stroke-linecap:butt;stroke-linejoin:miter;stroke-opacity:1" />
      <path
         inkscape:export-ydpi="96"
         inkscape:export-xdpi="96"
         inkscape:original-d="m 33.824593,81.378569 c -0.252807,3.729593 -0.505878,7.459448 -0.759214,11.18957 0.601665,3.808613 1.202976,7.616921 1.80407,11.425771 0.245274,2.65031 0.490257,5.30058 0.734991,7.95127 0.668499,-2.33908 1.336611,-4.67748 2.00452,-7.01582 -0.578741,-4.4987 -1.157904,-8.998343 -1.737251,-13.497117 0.133892,-2.316483 0.267533,-4.677481 0.400904,-7.015824 1.046946,-1.002406 2.093876,-2.004787 3.140417,-3.006783 0.935466,-0.0448 1.871151,-0.08936 2.806329,-0.133633 1.692471,-1.091293 3.38568,-2.182966 5.078122,-3.274052 1.826275,0.04427 3.652948,0.08882 5.479026,0.133633 1.202806,-0.868767 2.405689,-1.737516 3.608138,-2.605876 1.224944,-1.269479 2.450235,-2.539325 3.674957,-3.808592 0.467886,-0.913241 0.935707,-1.826607 1.403165,-2.739512 -0.534091,-0.53462 -1.068814,-1.069343 -1.603619,-1.603618 -2.204709,1.959713 -4.662585,3.906951 -6.994273,5.860822 -2.256713,1.387168 -4.513141,2.774259 -6.770108,4.161785 -3.096033,0.601175 -6.191478,1.202449 -9.287616,1.804069 -0.994018,0.724442 -1.988108,1.449007 -2.982558,2.173907"
         inkscape:path-effect="#path-effect967"
         inkscape:connector-curvature="0"
         id="path965"
         d="M 33.824593,81.378569 C 33.571541,85.108145 33.318469,88.838 33.492608,92.6074 c 0.174139,3.769399 0.775451,7.57771 1.19864,10.80728 0.42319,3.22957 0.668173,5.87984 1.124844,6.0356 0.456671,0.15577 1.124785,-2.18263 1.169309,-5.60111 0.04452,-3.41847 -0.534638,-7.918115 -0.757977,-11.325806 -0.22334,-3.407691 -0.08843,-5.768616 0.501855,-7.438981 0.590285,-1.670364 1.637216,-2.672745 2.628222,-3.196019 0.991007,-0.523274 1.926692,-0.56783 3.240532,-1.135708 1.31384,-0.567879 3.007049,-1.659553 4.766382,-2.182858 1.759334,-0.523304 3.586007,-0.478752 5.10047,-0.890842 1.514463,-0.41209 2.717347,-1.280839 3.931023,-2.349785 1.213677,-1.068946 2.438967,-2.338793 3.285223,-3.43007 0.846255,-1.091278 1.314077,-2.004644 1.280679,-2.728248 -0.0334,-0.723604 -0.568122,-1.258327 -1.965385,-0.578724 -1.397263,0.679603 -3.799841,2.692833 -6.09403,4.363376 -2.294188,1.670544 -4.550616,3.057636 -7.227118,4.052052 -2.676503,0.994416 -5.771948,1.595689 -7.817029,2.258641 -2.045081,0.662953 -3.039171,1.387518 -4.033655,2.112371"
         style="fill:#986e42;fill-opacity:1;stroke:none;stroke-width:0.26458332px;stroke-linecap:butt;stroke-linejoin:miter;stroke-opacity:1" />
      <circle
         inkscape:export-ydpi="96"
         inkscape:export-xdpi="96"
         style="opacity:1;fill:#986e42;fill-opacity:1;stroke:none;stroke-width:0.55666023;stroke-linecap:round;stroke-linejoin:round;stroke-miterlimit:4;stroke-dasharray:none;stroke-opacity:1"
         id="circle975"
         cx="49.124298"
         cy="86.236816"
         r="9.298645" />
      <path
         inkscape:export-ydpi="96"
         inkscape:export-xdpi="96"
         sodipodi:nodetypes="cccccccccccccccc"
         inkscape:original-d="m 59.921219,67.990807 c 0.254175,-0.159569 0.508087,-0.318873 0.761734,-0.477913 4.20243,1.157479 8.404589,2.315221 12.60649,3.47323 2.026904,0.289256 4.053851,0.578821 6.080382,0.868627 1.314196,1.491827 2.628413,3.028789 3.942225,4.543581 -0.155646,2.249284 -0.310186,4.479097 -0.467722,6.748555 -0.127617,2.055275 -0.252986,4.070439 -0.380317,6.113151 -0.45228,0.137266 -0.903765,0.274475 -1.35449,0.411637 -0.222761,0.429694 -0.446736,0.861482 -0.670618,1.292846 -0.306966,-1.193986 -0.614017,-2.38701 -0.92137,-3.579912 -0.800575,-0.666634 -1.601439,-1.333022 -2.402797,-1.999338 -1.119151,-1.236635 -2.238117,-2.472508 -3.357573,-3.708366 -0.333817,-1.247508 -0.667909,-2.49478 -1.00226,-3.741772 -1.663669,-1.762484 -3.328067,-3.525194 -4.992525,-5.287423 -1.725858,-0.959789 -3.451867,-1.919251 -5.178311,-2.878543 -0.88739,-0.593077 -1.774969,-1.185839 -2.662848,-1.77836 z"
         inkscape:path-effect="#path-effect987"
         inkscape:connector-curvature="0"
         id="path985"
         d="m 60.492166,68.207471 c -0.316727,-0.376162 -0.06282,-0.535466 2.165157,-0.03612 2.227973,0.499341 6.430132,1.657083 9.544557,2.380707 3.114425,0.723623 5.141372,1.013187 6.806104,1.908761 1.664731,0.895573 2.989973,2.42297 3.569074,4.304878 0.579102,1.881907 0.42456,4.11172 0.281983,6.274087 -0.142577,2.162368 -0.267946,4.177532 -0.557602,5.267613 -0.289657,1.090081 -0.741142,1.22729 -1.077961,1.510607 -0.336818,0.283318 -0.560793,0.715106 -0.826323,0.333861 -0.26553,-0.381245 -0.572581,-1.574269 -1.126509,-2.503933 -0.553927,-0.929665 -1.35479,-1.596054 -2.315064,-2.547547 -0.960274,-0.951493 -2.07924,-2.187366 -2.805895,-3.429133 -0.726655,-1.241766 -1.060746,-2.489038 -2.059736,-3.99369 -0.998989,-1.504651 -2.663387,-3.267361 -4.358496,-4.628341 -1.69511,-1.360981 -3.421119,-2.320443 -4.72805,-3.096632 -1.306932,-0.776189 -2.194511,-1.368951 -2.511239,-1.745113 z"
         style="fill:#986e42;fill-opacity:1;stroke:#986e42;stroke-width:0.26458332px;stroke-linecap:butt;stroke-linejoin:miter;stroke-opacity:1" />
      <path
         inkscape:export-ydpi="96"
         inkscape:export-xdpi="96"
         inkscape:original-d="m 75.795095,89.895443 c -1.135631,0.244734 -2.271527,0.48973 -3.407688,0.734991 -0.790622,0.84632 -1.581078,1.692444 -2.372016,2.539061 0.02254,1.102579 0.04481,2.204709 0.06682,3.30746 0.813401,0.601234 1.648426,1.224722 2.472243,1.837479 1.024742,0.601059 2.04933,1.202449 3.073598,1.804066 1.358779,-0.256375 2.717507,-0.512529 4.075861,-0.768397 0.634887,-0.824161 1.269794,-1.648426 1.904294,-2.472243 0.200647,-0.757259 0.401169,-1.514792 0.601358,-2.271792 -0.188973,-0.957585 -0.378367,-1.915694 -0.567949,-2.873147 -0.82364,-0.467887 -1.647896,-0.935707 -2.472243,-1.403165 -1.124611,-0.14505 -2.249252,-0.289806 -3.374276,-0.434313 z"
         inkscape:path-effect="#path-effect983"
         inkscape:connector-curvature="0"
         id="path981"
         d="m 75.227301,90.017908 c -0.567795,0.122466 -1.70369,0.367463 -2.667108,0.91315 -0.963418,0.545687 -1.753875,1.39181 -2.138201,2.366416 -0.384326,0.974605 -0.36206,2.076735 0.05499,2.929795 0.417045,0.853059 1.25344,1.474704 2.177738,2.08162 0.924298,0.606916 1.948887,1.208304 3.140521,1.380873 1.191634,0.172568 2.550362,-0.08358 3.546944,-0.623717 0.996582,-0.540132 1.631489,-1.364398 2.04899,-2.154945 0.417501,-0.790547 0.618025,-1.54808 0.623571,-2.405318 0.0055,-0.857239 -0.183849,-1.815348 -0.690396,-2.527891 -0.506547,-0.712543 -1.330803,-1.180363 -2.305212,-1.486628 -0.974409,-0.306264 -2.09905,-0.45102 -2.661543,-0.52342 -0.562493,-0.0724 -0.562495,-0.0724 -1.130289,0.05007 z"
         style="fill:#986e42;fill-opacity:1;stroke:none;stroke-width:0.26458332px;stroke-linecap:butt;stroke-linejoin:miter;stroke-opacity:1" />
      <path
         inkscape:export-ydpi="96"
         inkscape:export-xdpi="96"
         inkscape:original-d="m 21.739833,112.98085 c -0.389504,1.78153 -0.779272,3.56333 -1.169305,5.34539 0.81335,0.99103 1.626155,2.00426 2.438835,3.00678 1.715295,0.57884 3.430223,1.15791 5.144938,1.73725 2.015738,-0.99129 4.03158,-1.98251 6.046974,-2.97337 0.657199,-1.51455 1.314339,-3.02932 1.971112,-4.54358 0.122737,-1.74829 0.24526,-3.49704 0.367495,-5.24517 -0.456247,0.90163 -0.912905,1.80381 -1.369756,2.70611 -1.782159,1.92698 -3.563329,3.85287 -5.34539,5.7797 -1.804062,-0.3344 -3.607874,-0.66844 -5.412208,-1.00226 -0.757087,-1.00264 -1.514263,-2.00479 -2.271791,-3.00678 -0.133365,-0.6016 -0.267005,-1.20298 -0.400904,-1.80407 z"
         inkscape:path-effect="#path-effect1003"
         inkscape:connector-curvature="0"
         id="path1001"
         d="m 21.611778,114.17217 c -0.261646,0.59017 -0.651415,2.37197 -0.442527,3.76086 0.208889,1.38889 1.027145,2.3977 2.291223,3.18842 1.264078,0.79072 2.979007,1.36979 4.844311,1.16371 1.865304,-0.20608 3.881149,-1.19729 5.217355,-2.45008 1.336206,-1.25279 1.993349,-2.76755 2.383044,-4.39881 0.389696,-1.63126 0.512219,-3.38001 0.345282,-3.80328 -0.166936,-0.42326 -0.623594,0.47892 -1.743052,1.89358 -1.119458,1.41466 -2.900628,3.34055 -4.693712,4.13692 -1.793084,0.79637 -3.596897,0.46234 -4.877726,-0.20594 -1.28083,-0.66827 -2.038009,-1.67041 -2.483461,-2.47229 -0.445452,-0.80187 -0.579091,-1.40325 -0.840737,-0.81309 z"
         style="fill:#986e42;fill-opacity:1;stroke:none;stroke-width:0.26458332px;stroke-linecap:butt;stroke-linejoin:miter;stroke-opacity:1" />
      <path
         inkscape:export-ydpi="96"
         inkscape:export-xdpi="96"
         sodipodi:nodetypes="cccccccccccccc"
         inkscape:original-d="m 22.982233,78.724105 c -1.365962,0.932864 -2.730186,1.864626 -4.098679,2.799387 2.614487,0.484726 5.221061,0.968299 7.831194,1.452845 2.519893,0.330438 5.039947,0.661194 7.559523,0.992188 2.882077,-0.582925 5.764403,-1.165691 8.646207,-1.748139 3.354446,-1.181315 6.709341,-2.362616 10.063615,-3.543528 1.291561,-1.134083 2.583103,-2.268122 3.874257,-3.401785 1.496094,-1.76377 2.992575,-3.528041 4.488465,-5.291666 0.06325,-0.299448 0.126257,-0.598726 0.18899,-0.897694 -0.723448,-0.613847 -1.448644,-1.228686 -2.173365,-1.842633 -0.75571,0.834459 -1.511638,1.669129 -2.267857,2.504091 -3.843766,2.378625 -7.685249,4.755935 -11.528271,7.134301 -4.551567,0.992003 -9.102664,1.984111 -13.654392,2.976563 -2.976498,-0.378267 -5.95286,-0.756216 -8.929687,-1.13393 z"
         inkscape:path-effect="#path-effect1072"
         inkscape:connector-curvature="0"
         id="path1070"
         d="m 23.787667,79.379569 c -2.171357,0.277458 -3.535581,1.209219 -2.912632,1.919086 0.62295,0.709867 3.229524,1.193439 5.794546,1.600926 2.565022,0.407487 5.085075,0.738244 7.785942,0.612233 2.700866,-0.126012 5.583192,-0.708777 8.701323,-1.590684 3.118132,-0.881906 6.473027,-2.063208 8.795925,-3.220773 2.322898,-1.157565 3.614441,-2.291603 5.008046,-3.740338 1.393604,-1.448736 2.890084,-3.213007 3.669567,-4.244555 0.779482,-1.031547 0.842489,-1.330825 0.51211,-1.787069 -0.330379,-0.456244 -1.055574,-1.071083 -1.795677,-0.960976 -0.740102,0.110107 -1.49603,0.944777 -3.795993,2.551613 -2.299962,1.606836 -6.141445,3.984148 -10.33874,5.669394 -4.197296,1.685247 -8.748393,2.677354 -12.512546,2.984495 -3.764153,0.307141 -6.740515,-0.07081 -8.911871,0.206648 z"
         style="fill:#986e42;fill-opacity:1;stroke:none;stroke-width:0.26458332px;stroke-linecap:butt;stroke-linejoin:miter;stroke-opacity:1" />
      <path
         inkscape:export-ydpi="96"
         inkscape:export-xdpi="96"
         sodipodi:nodetypes="ssscssccssscsscssscssscscssccscscccccccccccccccscscccscsccscccscccsscccsccscccccsssscccccccccccscccsssccccccccscccssccssssssssssssscssccccsssssssssssssssssssscccssccsccssscccccsccscsccccccsscccscsssccsccczcccscccsccsscsccssccccccscccccsccccsccccccscccccscccsaccsccsccssssscs"
         inkscape:connector-curvature="0"
         id="path826"
         d="M 45.76631,144.81078 C 35.66835,143.60963 26.06447,137.90187 22.968,131.26133 c -1.41949,-3.04417 -2.05755,-5.85553 -2.24186,-9.87778 l -0.16165,-3.52777 0.48087,2.8851 c 1.39673,8.38005 4.86064,13.82391 10.97009,17.24051 4.82251,2.6969 10.01001,3.8584 17.102246,3.82925 9.476162,-0.0389 38.917004,-14.75045 47.650194,-14.80348 5.79217,-0.0352 8.01452,0.40216 12.27966,2.41654 4.65277,2.19745 8.24829,6.66629 8.32568,10.3479 0.0384,1.82682 -0.97333,2.87942 -2.76765,2.87942 -1.29133,0 -1.89508,-0.56463 -3.9131,-3.65958 -3.13119,-4.80215 -8.65689,-6.86798 -17.27597,-6.45877 -8.21457,0.39 -37.415188,13.49556 -47.6502,12.27811 z m 9.05097,-9.97829 c -1.392051,-2.46658 -2.922824,-3.69424 -7.58631,-6.08411 -2.10485,-1.07866 -4.47123,-2.54202 -5.25861,-3.2519 -2.04799,-1.84641 -3.51939,-5.34765 -2.24737,-5.34765 0.26679,0 0.57772,0.46325 0.69095,1.02943 0.46748,2.33738 2.5185,3.82625 8.809759,6.39512 3.166858,1.2931 6.581345,3.71769 7.633886,5.42074 1.196117,1.93536 0.86772,3.73527 -0.681511,3.73527 -0.159635,0 -0.771994,-0.85361 -1.360794,-1.8969 z m 13.18043,-4.08996 c -0.116395,-0.18833 0.03885,-0.82679 0.344989,-1.41879 0.833451,-1.61172 0.726609,-3.79134 -0.336892,-6.87258 -0.699753,-2.02737 -0.891438,-3.10326 -0.718528,-4.03297 0.344114,-1.85024 1.54116,-4.47196 2.379532,-5.21157 0.715744,-0.63142 0.724144,-0.62728 0.48652,0.23943 -1.239072,4.51946 -1.337688,5.47032 -0.733626,7.0736 1.811658,4.80844 2.007284,5.59853 1.772997,7.16087 -0.340765,2.27237 -2.439758,4.284 -3.194992,3.06201 z m -8.104681,-2.45455 c -0.110451,-0.17871 0.435317,-1.05994 1.212818,-1.95827 0.777505,-0.89833 1.507748,-2.06122 1.622771,-2.58419 0.11502,-0.52297 0.341457,-1.34773 0.503195,-1.8328 l 0.294072,-0.88194 0.0669,0.88194 c 0.125219,1.65072 -0.0608,2.64396 -0.778129,4.15476 -0.706522,1.48805 -2.521683,2.86761 -2.921624,2.2205 z m -9.90823,-7.57592 c -0.590246,-0.25712 -2.119192,-1.16371 -3.397649,-2.01466 -1.27847,-0.85095 -3.09337,-2.02343 -4.03313,-2.60551 -1.84325,-1.14171 -3.3149,-3.0063 -3.31278,-4.19731 0.001,-0.62108 0.11352,-0.55757 0.69181,0.39087 0.44114,0.72351 1.59731,1.61526 3.20166,2.46945 1.38115,0.73534 3.63672,2.04344 5.012389,2.90689 2.379909,1.49377 2.652296,1.57713 5.616462,1.71885 2.218185,0.10605 3.115246,0.27895 3.115246,0.60044 0,1.12496 -4.817074,1.63572 -6.894008,0.73098 z M 25.65797,120.03231 c -1.6212,-0.74404 -3.12547,-2.4864 -4.74586,-5.49701 -0.81076,-1.50635 -2.58203,-3.99485 -3.93615,-5.53 -1.35413,-1.53516 -2.9534,-3.64305 -3.55392,-4.68422 -0.60053,-1.04117 -1.87349,-2.83223 -2.8288,-3.98015 -3.1035701,-3.729321 -3.7982401,-6.387421 -2.3077601,-8.830411 0.8366,-1.37125 10.8106901,-10.320244 11.1378101,-9.99312 0.10521,0.105212 -1.88167,2.291891 -4.41529,4.859285 -2.53362,2.567396 -4.87885,5.203215 -5.2116101,5.857375 -0.88102,1.73195 -0.47302,3.1397 1.5948801,5.5028 0.97361,1.1126 2.58449,3.237011 3.57973,4.720921 0.99524,1.48389 2.89586,3.9357 4.22361,5.44845 1.32775,1.51275 2.95109,3.81462 3.60741,5.11528 2.01481,3.99279 3.32362,4.94829 6.24186,4.55688 2.10459,-0.28229 3.66196,-1.66254 4.56091,-4.04221 0.66483,-1.7599 0.73677,-2.45339 0.54,-5.2054 -0.2638,-3.68952 -0.41712,-5.10595 -0.90973,-8.404101 -1.33856,-8.96201 -1.1027,-21.826205 0.45637,-24.890979 0.76266,-1.499235 2.45655,-2.899167 2.93229,-2.423425 0.129,0.129 -0.17598,0.722429 -0.67774,1.318733 -1.44131,1.712898 -1.70435,3.231628 -1.89482,10.940055 -0.15644,6.331206 -0.0858,7.747716 0.567,11.373056 0.41013,2.27762 1.14156,5.353821 1.62539,6.836001 1.61354,4.94292 1.00968,10.9247 -1.4251,14.11686 -1.98282,2.59961 -6.57625,4.02136 -9.16048,2.83533 z m 29.247794,-2.15092 c -0.395408,-0.27695 -1.018195,-1.18977 -1.383976,-2.02847 -1.054834,-2.41867 -2.397714,-3.90293 -4.704898,-5.20025 -2.43615,-1.36982 -3.36358,-2.78539 -3.00372,-4.58468 0.33517,-1.67585 0.71749,-1.59974 0.71749,0.14284 0,1.86228 0.42551,2.43573 2.640048,3.55792 2.478698,1.25605 4.100188,2.83312 5.245337,5.10165 1.067315,2.11434 1.512312,2.45621 3.197172,2.45621 1.106992,0 1.383086,0.49438 0.471459,0.8442 -0.960607,0.36862 -2.430487,0.2348 -3.178912,-0.28942 z m 3.913321,-2.15245 c -0.776111,-0.27961 -1.688923,-0.51076 -2.028472,-0.51368 -0.849316,-0.007 -0.775063,-0.60165 0.136084,-1.08928 0.567408,-0.30367 1.24248,-0.29962 2.734028,0.0164 1.769247,0.37485 2.189176,0.3415 3.935465,-0.31255 2.27958,-0.85377 5.035543,-2.80604 8.981229,-6.3621 1.552222,-1.39894 3.345067,-2.77426 3.984099,-3.05624 0.639032,-0.28199 1.259875,-0.76809 1.379654,-1.08023 0.189875,-0.49479 0.267,-0.50093 0.602012,-0.0479 0.211328,0.2858 0.860485,0.74482 1.442568,1.02004 0.582083,0.27522 1.315716,1.01543 1.630295,1.64492 l 0.571959,1.14453 0.47594,-1.6741 c 0.261768,-0.92075 0.480635,-3.31208 0.486374,-5.31407 0.0098,-3.418891 0.03973,-3.568891 0.49275,-2.469451 0.65702,1.59453 1.20584,6.129081 0.963722,7.962631 -0.258234,1.95561 -1.322522,4.00533 -2.667212,5.13681 -1.808089,1.52141 -5.55504,3.17395 -7.57669,3.3416 -1.636444,0.13571 -1.935441,0.0559 -2.42849,-0.648 -0.761115,-1.08665 -0.402216,-1.5025 1.059988,-1.22818 1.492112,0.27992 3.957295,-0.48838 6.267072,-1.9532 l 1.67107,-1.05976 -1.31565,-1.04554 c -0.723603,-0.57505 -1.730378,-1.04206 -2.237274,-1.0378 -1.434849,0.0121 -3.90253,1.28449 -6.033198,3.11094 -3.148309,2.69879 -4.641568,3.77858 -6.844344,4.94917 -2.278253,1.21071 -3.54196,1.33635 -5.682979,0.56502 z m 21.193517,-10.24393 c -0.617044,-0.61704 -2.308768,-0.77904 -3.062817,-0.29328 -0.341446,0.21996 0.04747,0.38077 1.272078,0.52599 0.970139,0.11503 1.89429,0.2341 2.053671,0.26458 0.159378,0.0305 0.04106,-0.1933 -0.262932,-0.49729 z m -17.136572,3.72771 c 0,-0.19403 0.15875,-0.35278 0.352777,-0.35278 0.194028,0 0.352778,0.15875 0.352778,0.35278 0,0.19403 -0.15875,0.35278 -0.352778,0.35278 -0.194027,0 -0.352777,-0.15875 -0.352777,-0.35278 z m 2.469444,-1.05833 c 0,-0.19403 0.15875,-0.35278 0.352778,-0.35278 0.194028,0 0.352778,0.15875 0.352778,0.35278 0,0.19402 -0.15875,0.35277 -0.352778,0.35277 -0.194028,0 -0.352778,-0.15875 -0.352778,-0.35277 z m 2.469445,-1.05834 c 0,-0.19402 0.168119,-0.35277 0.373598,-0.35277 0.205479,0 0.275484,0.15875 0.155568,0.35277 -0.119916,0.19403 -0.288036,0.35278 -0.373598,0.35278 -0.08556,0 -0.155568,-0.15875 -0.155568,-0.35278 z m -5.591528,-0.33514 c 0.07761,-0.23283 0.256205,-0.41142 0.396875,-0.39687 0.421816,0.0436 0.340127,0.52751 -0.114653,0.6791 -0.232833,0.0776 -0.359833,-0.0494 -0.282222,-0.28223 z m 2.769305,-1.07597 c 0,-0.19403 0.15875,-0.35278 0.352778,-0.35278 0.194028,0 0.352778,0.15875 0.352778,0.35278 0,0.19403 -0.15875,0.35278 -0.352778,0.35278 -0.194028,0 -0.352778,-0.15875 -0.352778,-0.35278 z m 2.469445,-0.70555 c 0,-0.19403 0.15875,-0.35278 0.352778,-0.35278 0.194027,0 0.352777,0.15875 0.352777,0.35278 0,0.19402 -0.15875,0.35277 -0.352777,0.35277 -0.194028,0 -0.352778,-0.15875 -0.352778,-0.35277 z m -6.35,-1.05834 c 0,-0.19402 0.15875,-0.35277 0.352778,-0.35277 0.194027,0 0.352777,0.15875 0.352777,0.35277 0,0.19403 -0.15875,0.35278 -0.352777,0.35278 -0.194028,0 -0.352778,-0.15875 -0.352778,-0.35278 z m 2.822222,-0.35277 c 0,-0.19403 0.15875,-0.35278 0.352778,-0.35278 0.194028,0 0.352778,0.15875 0.352778,0.35278 0,0.19402 -0.15875,0.35277 -0.352778,0.35277 -0.194028,0 -0.352778,-0.15875 -0.352778,-0.35277 z m 10.461621,-3.46736 c -0.831105,-0.918361 -0.731336,-1.594421 0.491261,-3.328931 0.681532,-0.9669 0.990575,-1.74554 0.844201,-2.12699 -0.405278,-1.05612 -1.218495,-0.64913 -1.905536,0.95367 -0.742513,1.73221 -1.60582,2.1963 -2.947998,1.58476 -2.106877,-0.95996 -1.964764,-3.93674 0.282123,-5.90953 1.113734,-0.97788 3.650241,-1.806769 5.579886,-1.823427 0.986374,-0.0085 -1.166664,-1.40201 -5.219996,-3.378504 -3.699062,-1.803742 -5.832119,-3.814896 -5.79302,-5.461959 l 0.02864,-1.207001 0.416923,0.938187 c 0.774905,1.743739 1.805634,2.506882 6.404939,4.742152 7.091849,3.44665 10.054166,6.226472 10.054166,9.434762 0,1.79743 -1.698928,4.78316 -3.169496,5.570141 -1.625117,0.86968 -4.284504,0.87633 -5.066105,0.0127 z m 6.700834,-4.107151 c -0.10953,-0.28542 0.03224,-0.75033 0.315035,-1.03313 0.725148,-0.72515 0.638284,-1.27013 -0.202449,-1.27013 -0.918401,0 -1.248399,0.86544 -0.748425,1.96277 0.417731,0.91682 0.970608,1.21288 0.635839,0.34049 z m -61.259678,2.50232 c 0,-0.26735 0.25017,-1.08483 0.55594,-1.81663 0.4707,-1.12655 0.49968,-1.84981 0.18899,-4.71739 -0.43828,-4.045225 -0.0456,-7.484258 1.15093,-10.07867 1.48162,-3.212663 5.20465,-6.666103 7.98192,-7.403931 0.48507,-0.128866 0.009,0.259154 -1.05834,0.862266 -1.06715,0.603113 -2.46629,1.604878 -3.1092,2.226145 -2.73328,2.641258 -4.40182,8.631393 -3.63338,13.04406 0.68026,3.90638 0.52785,6.03868 -0.52072,7.28483 -0.97802,1.16231 -1.55614,1.38497 -1.55614,0.59932 z m 27.16389,-7.90299 c 0,-0.15875 0.537502,-0.483 1.194452,-0.72055 0.65695,-0.23756 1.947238,-1.094549 2.867311,-1.904425 l 1.672855,-1.472508 -0.584091,1.129506 c -0.32125,0.621227 -1.174976,1.507885 -1.897172,1.970347 -1.411608,0.90394 -3.253355,1.4687 -3.253355,0.99763 z m 33.937222,-1.559258 c -0.57386,-0.57386 -0.532317,-1.713145 0.156369,-4.288247 0.334588,-1.251073 0.595623,-3.659223 0.617361,-5.695364 0.03334,-3.122401 -0.05303,-3.654916 -0.75154,-4.634181 -1.123633,-1.575252 -3.197208,-2.283749 -7.677468,-2.623231 -4.721415,-0.357755 -6.145777,-0.747025 -7.556959,-2.065263 -1.624619,-1.517626 -1.312918,-1.873723 0.717868,-0.820113 1.591377,0.825634 2.39166,0.96835 6.790972,1.211043 4.462967,0.2462 5.190811,0.378922 6.926471,1.263037 2.947628,1.501461 3.708333,3.096595 3.657159,7.668708 -0.02173,1.940278 -0.281982,4.480278 -0.578369,5.644444 -0.296386,1.164167 -0.64112,2.71198 -0.766081,3.439584 -0.231056,1.345374 -0.772714,1.662651 -1.535783,0.899583 z M 45.7101,85.606573 c -0.46361,-0.541454 -0.7049,-0.596639 -1.21523,-0.277936 -0.94964,0.593062 -1.20117,0.04899 -0.49186,-1.063925 1.1502,-1.804666 3.349457,-3.626982 4.377218,-3.626982 1.159027,0 2.354905,1.175773 2.691067,2.645833 l 0.242013,1.058334 -1.123488,-1.322917 c -0.617919,-0.727604 -1.362238,-1.322917 -1.654041,-1.322917 -0.329336,0 -0.118904,0.346379 0.554849,0.913303 1.291819,1.086993 1.413171,2.344889 0.30135,3.123639 -1.093502,0.76592 -2.973088,0.701379 -3.681878,-0.126432 z m 1.996485,-1.264676 C 47.24184,83.781918 45.9427,83.608697 45.9427,84.10671 c 0,0.511232 0.44266,0.764353 1.33671,0.764353 0.730084,0 0.797271,-0.08323 0.427175,-0.529166 z m 27.593146,1.036919 c -1.020816,-0.71501 -1.68287,-2.060621 -1.985522,-4.035531 -0.133809,-0.873125 -0.486071,-1.95846 -0.782807,-2.411857 -0.710572,-1.085705 -0.434647,-1.299012 0.598332,-0.462558 0.462086,0.374177 1.158629,1.665541 1.574582,2.919236 0.565146,1.703359 1.014373,2.419233 1.853565,2.953791 0.609201,0.388055 1.113751,0.903993 1.121226,1.146527 0.01901,0.617284 -1.437379,0.550193 -2.379376,-0.109608 z M 69.15728,81.509662 c -0.294816,-0.647043 -0.484984,-0.768124 -0.692591,-0.440972 -0.170017,0.267921 -0.288381,-0.224236 -0.291592,-1.212434 -0.0044,-1.36683 0.192589,-1.888916 1.105027,-2.928126 0.717222,-0.816871 1.363264,-1.227208 1.824451,-1.158804 0.997493,0.147948 1.177995,0.99315 0.263186,1.232376 -0.673298,0.176071 -0.699788,0.261101 -0.239998,0.770446 0.284254,0.314889 0.568413,1.048776 0.631461,1.63086 0.104458,0.964335 0.01281,1.068151 -1.031889,1.168879 -1.347551,0.129928 -1.446177,0.476317 -0.352778,1.239034 l 0.79375,0.553691 -0.801313,0.01849 c -0.525381,0.01214 -0.941257,-0.288639 -1.207714,-0.873453 z M 49.387367,77.262027 c -0.110388,-0.110384 -0.957076,-0.308892 -1.881537,-0.441131 -1.8948,-0.271039 -2.41523,-0.920249 -1.01869,-1.270758 1.012446,-0.254106 3.374099,0.708388 3.61088,1.471619 0.138532,0.446536 -0.341941,0.608983 -0.710653,0.24027 z m 15.481515,-1.04382 c 0.251478,-0.655334 1.505232,-1.37258 1.829724,-1.046748 0.247065,0.248088 -1.215577,1.585715 -1.73392,1.585715 -0.166444,0 -0.209554,-0.242535 -0.0958,-0.538967 z M 52.864793,73.238798 c -1.535773,-1.641867 -1.991343,-2.478846 -1.349248,-2.478846 0.275925,0 2.330072,2.07808 3.194568,3.231786 0.253841,0.338766 0.301128,0.671206 0.112088,0.788039 -0.179835,0.111146 -1.060669,-0.582295 -1.957408,-1.540979 z m 15.381866,0.696394 C 67.80502,73.376353 66.53502,72.490958 65.424436,71.967648 64.313853,71.444334 62.724723,70.550038 61.893032,69.980323 58.359024,67.559488 53.769075,67.237631 50.17603,69.158697 c -1.726527,0.92311 -2.309485,1.042765 -5.29167,1.086143 -2.37763,0.03457 -3.68451,0.221632 -4.49791,0.643766 -0.63059,0.327262 -1.14653,0.43627 -1.14653,0.242242 0,-0.698891 2.23318,-1.484725 5.05762,-1.779714 2.05106,-0.214218 3.579257,-0.629328 5.309995,-1.442378 2.8171,-1.32339 6.603002,-1.762728 8.898682,-1.032655 2.006332,0.638055 8.50627,4.242442 9.866711,5.471351 1.176024,1.06232 1.688257,2.306232 1.029491,2.500027 -0.194028,0.05708 -0.714121,-0.353448 -1.15576,-0.912287 z"
         style="fill:#000000;stroke-width:0.35277778" />
      <g
         inkscape:export-ydpi="96"
         inkscape:export-xdpi="96"
         transform="matrix(0.62303275,-0.14412915,0.14412915,0.62303275,10.534107,22.407888)"
         id="g938">
        <path
           style="fill:#ffffff;stroke:none;stroke-width:0.26458332px;stroke-linecap:butt;stroke-linejoin:miter;stroke-opacity:1"
           d="m 25.161892,166.57211 c 2.14925,0.8935 6.447615,2.68044 9.96693,4.04636 3.519315,1.36592 6.259727,2.31089 8.338627,2.6652 2.0789,0.35431 3.496393,0.11806 5.023838,0.0945 1.527446,-0.0236 3.165691,0.16542 4.590923,0.1654 1.425233,-3e-5 2.638078,-0.18904 4.031664,-0.96067 1.393586,-0.77164 2.968873,-2.12639 4.97667,-3.37828 2.007796,-1.2519 4.449335,-2.40178 6.047807,-3.08682 1.598472,-0.68504 2.35452,-0.90555 2.953073,-0.97769 0.598552,-0.0721 1.070743,0.009 1.680571,0.41462 0.609827,0.40536 1.390088,1.15377 2.241117,3.12441 0.851029,1.97063 1.779,5.16348 2.259368,7.8802 0.480368,2.71672 0.511863,4.95296 0.33972,7.39435 -0.172142,2.44139 -0.552266,5.1181 -0.90657,6.74814 -0.354304,1.63005 -0.684997,2.22845 -1.252115,2.57509 -0.567118,0.34665 -1.369894,0.44109 -2.527787,0.23631 -1.157893,-0.20479 -2.669248,-0.70858 -5.047523,-1.55121 -2.378276,-0.84263 -5.622232,-2.02368 -7.744543,-3.1769 -2.122311,-1.15321 -3.138023,-2.29589 -3.969522,-3.03253 -0.831498,-0.73664 -1.486696,-1.07608 -2.219022,-1.29658 -0.732327,-0.22051 -1.541673,-0.32204 -2.694679,-0.38069 -1.153007,-0.0587 -2.648743,-0.0744 -4.289951,0.35273 -1.641208,0.42712 -3.426901,1.29694 -5.309096,2.50971 -1.882194,1.21278 -3.85985,2.76788 -6.447601,4.17567 -2.58775,1.40779 -5.784329,2.66752 -8.161071,3.3933 -2.376743,0.72577 -3.932843,0.91727 -4.8399,0.90276 -0.907056,-0.0145 -1.16455,-0.235 -1.567654,-1.58301 -0.403103,-1.34802 -0.951612,-3.82288 -1.422729,-6.64308 -0.471117,-2.8202 -0.864873,-5.986 -0.778225,-8.8129 0.08665,-2.8269 0.653653,-5.31542 1.07886,-7.14224 0.425208,-1.82681 0.708727,-2.99239 1.000105,-3.80339 0.291379,-0.81101 0.590693,-1.26786 1.008454,-1.49971 0.417762,-0.23186 0.954696,-0.23916 1.222852,-0.24281 0.268156,-0.004 0.268159,-0.004 2.417409,0.8898 z"
           id="path932"
           inkscape:connector-curvature="0"
           inkscape:path-effect="#path-effect934"
           inkscape:original-d="m 23.012642,165.67861 c 4.298631,1.78668 8.596996,3.57362 12.895097,5.36082 2.740506,0.94465 5.480918,1.88962 8.22098,2.83482 1.417595,-0.23648 2.835087,-0.47273 4.252232,-0.7087 1.637816,0.18868 3.27606,0.37771 4.913691,0.56696 1.212768,-0.18922 2.425612,-0.37824 3.638021,-0.56696 1.574778,-1.35435 3.150065,-2.7091 4.724701,-4.06325 2.440924,-1.14973 4.88246,-2.29962 7.323291,-3.44903 0.756118,-0.22072 1.512168,-0.44123 2.267855,-0.66146 0.441055,0.0785 0.913709,0.15723 1.370166,0.23624 0.755864,0.73959 1.543666,1.48014 2.315104,2.22061 0.945197,3.19676 1.858648,6.39383 2.787573,9.59114 0.03176,2.23622 0.06326,4.47246 0.09449,6.70908 -0.377753,2.64588 -0.755687,5.3229 -1.133927,7.98475 -0.330502,0.59826 -0.661194,1.19666 -0.992187,1.79539 -0.803357,0.0943 -1.606135,0.18872 -2.409598,0.28348 -1.512189,-0.50442 -3.023547,-1.0082 -4.535715,-1.51191 -3.244371,-1.18156 -6.488327,-2.36261 -9.732888,-3.54352 -1.007716,-1.1185 -2.015607,-2.26813 -3.023809,-3.40179 -0.654913,-0.33969 -1.310108,-0.67913 -1.965561,-1.01829 -0.809331,-0.10182 -1.618676,-0.20335 -2.428412,-0.30463 -1.496311,-0.016 -2.992046,-0.0318 -4.488468,-0.0472 -1.786051,0.86986 -3.571745,1.73968 -5.358016,2.60992 -1.978094,1.55538 -3.955748,3.11048 -5.934022,4.66612 -3.197254,1.25984 -6.393831,2.51958 -9.591145,3.77976 -1.556146,0.19127 -3.112246,0.38277 -4.668766,0.57455 -0.257324,-0.22084 -0.514816,-0.44134 -0.77262,-0.66161 -0.548338,-2.47555 -1.096847,-4.95041 -1.645667,-7.42522 -0.39343,-3.16556 -0.787186,-6.33136 -1.181176,-9.49665 0.567188,-2.48843 1.134193,-4.97695 1.700893,-7.46503 0.283711,-1.16554 0.567229,-2.33112 0.850446,-3.49628 0.299416,-0.45686 0.598727,-0.91371 0.897693,-1.37016 0.536485,-0.008 1.073425,-0.0149 1.609741,-0.0219 z" />
        <path
           inkscape:connector-curvature="0"
           id="path845"
           d="m 21.735812,194.88826 c 0.10037,-0.39988 0.21673,-0.76131 0.25858,-0.80316 0.0419,-0.0419 1.78836,-0.47754 3.88111,-0.96819 2.09275,-0.49064 4.75749,-1.21309 5.92166,-1.60543 2.151164,-0.72498 6.907234,-2.99557 8.870004,-4.23461 l 1.0801,-0.68183 -0.44508,0.67927 c -2.28444,3.48649 -12.860634,8.33277 -18.198814,8.33916 l -1.55004,0.002 0.18248,-0.72706 z m -0.9551,0.0656 c -0.37378,-0.58681 -1.823708,-5.50893 -2.346438,-7.96554 -0.30637,-1.43979 -0.62601,-4.17318 -0.71032,-6.07422 -0.13035,-2.93941 -0.0666,-3.86945 0.42638,-6.2177 0.74751,-3.56083 1.85587,-7.72552 2.132548,-8.01309 0.11892,-0.12359 0.45475,-0.14901 0.7463,-0.0565 0.51241,0.16263 0.51697,0.22305 0.13683,1.81222 -2.219498,9.27872 -2.398888,14.8491 -0.72012,22.36103 0.60142,2.69114 0.77503,4.84488 0.33482,4.15378 z m 51.365407,-1.05682 c -1.99545,-0.40105 -5.0789,-1.58603 -7.61531,-2.92661 -0.97757,-0.51667 -1.53927,-0.86105 -1.24823,-0.76528 0.29104,0.0958 1.35212,0.45874 2.35795,0.80659 1.61176,0.5574 8.03388,1.95775 8.97839,1.95775 0.86065,0 1.98491,-3.88959 2.35111,-8.13419 0.39204,-4.54397 0.017,-8.72572 -1.21735,-13.57467 -0.49828,-1.95737 -0.98432,-3.79697 -1.08009,-4.08802 -0.0958,-0.29104 0.19942,0.24474 0.65599,1.19063 1.25193,2.59368 2.56381,6.74196 2.92215,9.24014 0.38343,2.67308 0.16875,8.97171 -0.38092,11.17606 -0.59816,2.39882 -1.54433,5.09969 -1.86037,5.31048 -0.41793,0.27875 -1.87983,0.20576 -3.86332,-0.19288 z m -50.644427,-1.65516 c -0.645,-2.06433 -1.27442,-6.32081 -1.39872,-9.45885 -0.202218,-5.10537 0.70313,-11.12392 2.3412,-15.56366 l 0.56847,-1.54076 1.34955,0.17446 c 6.80738,0.88 12.979084,3.31988 17.032544,6.73355 2.44851,2.06203 2.50786,2.75008 0.13847,1.60531 -1.07917,-0.52139 -3.28732,-1.12081 -3.467,-0.94113 -0.0524,0.0524 0.47358,0.34695 1.16888,0.65452 1.85826,0.822 2.97407,1.77171 3.60336,3.06699 0.6721,1.38338 0.47058,1.75871 -1.19058,2.21745 -0.90669,0.25039 -1.37088,0.23386 -2.44237,-0.087 l -1.32291,-0.39614 0.7276,0.53892 c 0.40018,0.2964 0.7276,0.70586 0.7276,0.90991 0,0.44942 -2.06822,1.50879 -5.89815,3.02111 -1.570494,0.62013 -2.810324,1.17264 -2.755184,1.22778 0.31179,0.31179 11.059074,-3.68849 12.053694,-4.48654 0.29667,-0.23803 0.32612,0.007 0.17276,1.43958 -0.10527,0.98299 -0.0696,2.14423 0.0829,2.6964 l 0.26778,0.96984 -2.16033,1.29759 c -5.053,3.03507 -7.68275,4.04155 -14.552044,5.56949 -4.24458,0.94412 -4.84911,0.98618 -5.04751,0.35117 z m 1.25417,-20.70364 c 0.20709,-1.09141 0.33884,-2.02694 0.29279,-2.07896 -0.15914,-0.1798 -0.90074,2.74704 -1.16363,4.5925 -0.31414,2.20519 -0.3532,7.0548 -0.0759,9.42004 0.1571,1.33996 0.23715,0.48013 0.38432,-4.12837 0.10224,-3.20146 0.35532,-6.7138 0.5624,-7.80521 z m 19.451014,6.23382 c 0.05,-0.25806 -0.0245,-0.58459 -0.16548,-0.72563 -0.16553,-0.16553 -0.29915,0.0345 -0.37691,0.56439 -0.12768,0.86999 0.37597,1.01971 0.54239,0.16124 z m 28.252483,13.59545 c -1.58257,-0.2816 -3.72569,-0.76124 -4.7625,-1.06585 -3.56216,-1.04656 -9.977872,-4.8643 -10.505176,-6.25122 -0.133913,-0.35222 -0.24348,-1.25177 -0.24348,-1.99901 0,-1.84079 -0.536128,-1.30434 -0.760441,0.7609 l -0.1656,1.52466 -1.322917,0.46879 c -1.505032,0.53332 -4.742146,0.64044 -6.297957,0.2084 -0.55346,-0.15369 -1.351272,-0.59951 -1.772912,-0.99071 -0.70098,-0.65037 -0.77278,-0.8856 -0.8385,-2.74704 -0.0395,-1.11967 0.0141,-2.12178 0.11927,-2.22691 0.36009,-0.36009 0.18928,-1.82255 -0.30814,-2.63827 -0.48936,-0.80249 -0.48891,-0.82077 0.0282,-1.14369 0.35696,-0.22293 0.48733,-0.52767 0.40654,-0.9503 -0.11022,-0.57655 7.9e-4,-0.64302 1.515846,-0.90683 2.403323,-0.41852 6.763024,-0.36314 7.871461,0.1 0.89685,0.37472 0.917856,0.41754 0.811334,1.65364 -0.198551,2.30405 1.029912,3.55235 4.251127,4.31981 2.727585,0.64984 4.780315,0.82072 6.913765,0.57553 l 1.85209,-0.21285 -2.64584,-0.20555 c -3.51798,-0.2733 -5.867071,-0.77243 -7.47856,-1.58903 -1.754013,-0.88883 -2.178728,-1.35317 -2.178728,-2.38201 0,-1.77975 5.258441,-6.58397 9.281508,-8.47977 2.36698,-1.1154 6.53448,-2.33808 7.56635,-2.21984 0.99126,0.11358 1.89751,1.95887 2.84433,5.79152 1.65088,6.68266 1.88527,13.67616 0.62457,18.63573 -0.71696,2.82052 -0.50759,2.7347 -4.80561,1.9699 z m 4.90081,-6.10284 c 0.20531,-1.7869 0.20987,-2.77247 0.0153,-3.30729 -0.26023,-0.7153 -0.27875,-0.68101 -0.30319,0.56107 -0.0143,0.7276 -0.19854,2.51354 -0.40938,3.96875 -0.21084,1.45521 -0.37534,2.88395 -0.36557,3.175 0.0375,1.11735 0.78411,-1.97172 1.06283,-4.39753 z m -18.906479,-3.33007 0.0167,-1.77448 -0.51833,0.64011 c -0.367435,0.45377 -0.473006,0.86672 -0.362643,1.41853 0.127741,0.63871 0.583195,1.49031 0.797041,1.49031 0.0278,0 0.05805,-0.79851 0.06724,-1.77447 z m -6.267987,-7.21009 c 1.518314,-0.0209 1.872557,-0.0924 1.508276,-0.30437 -0.900591,-0.52398 -3.196302,-0.58589 -4.76926,-0.12862 -1.884733,0.54791 -1.948243,0.91964 -0.112453,0.65818 0.763984,-0.1088 2.282031,-0.21014 3.373437,-0.22519 z m 10.00968,-2.80928 c 2.257066,-1.93795 4.495756,-3.28103 6.603206,-3.96152 0.76964,-0.24852 1.3561,-0.4951 1.30324,-0.54795 -0.22679,-0.2268 -3.31978,0.7787 -4.7977,1.55968 -1.65611,0.87514 -5.462249,4.38853 -5.42462,5.00739 0.01609,0.26459 0.05147,0.26779 0.15395,0.014 0.07319,-0.18126 1.046052,-1.11347 2.161924,-2.07157 z"
           style="fill:#000000;stroke-width:0.26458332"
           sodipodi:nodetypes="csccccccccccccccccscccccssscccsscccccccccsccccccscscccccsccccccsccccccccssscccccccccccccccccsccsscccccccccccccsccccccccccccccc" />
      </g>
      <circle
         inkscape:export-ydpi="96"
         inkscape:export-xdpi="96"
         r="8.2828341"
         cy="85.504486"
         cx="49.667641"
         id="path926"
         style="opacity:1;fill:#f2f2f2;fill-opacity:1;stroke:none;stroke-width:0.49584907;stroke-linecap:round;stroke-linejoin:round;stroke-miterlimit:4;stroke-dasharray:none;stroke-opacity:1" />
      <path
         inkscape:export-ydpi="96"
         inkscape:export-xdpi="96"
         inkscape:original-d="m 41.585748,84.842591 c -0.291867,0.335831 -0.584001,0.671926 -0.876398,1.008285 0.04833,0.494816 0.09631,0.989066 0.144069,1.483998 -0.279414,0.169116 -0.558824,0.338338 -0.838634,0.507905 -0.09828,0.121925 -0.196599,0.243845 -0.295294,0.366164 0.166021,0.26021 0.338868,0.519452 0.507905,0.779577 0.142042,0.137572 0.283747,0.275341 0.425225,0.413411 0.271926,-0.05932 0.543605,-0.118382 0.815009,-0.177178 0.275561,0.393017 0.551482,0.787186 0.826823,1.181177 0.224719,0.09818 0.449112,0.196598 0.673272,0.295293 -0.460139,-1.952056 -0.921054,-3.906017 -1.381977,-5.858632 z"
         inkscape:path-effect="#path-effect979"
         inkscape:connector-curvature="0"
         id="path977"
         d="M 41.670111,85.986841 C 41.29386,85.178404 41.001727,85.5145 40.879559,85.93011 c -0.122169,0.41561 -0.07419,0.90986 -0.189846,1.241909 -0.115661,0.332049 -0.395072,0.50127 -0.584154,0.646966 -0.189082,0.145696 -0.287404,0.267614 -0.252493,0.458089 0.03491,0.190474 0.204986,0.451521 0.360548,0.650404 0.155562,0.198883 0.297268,0.336652 0.504122,0.37599 0.206854,0.03934 0.478533,-0.01972 0.751843,0.147395 0.27331,0.167118 0.549229,0.561289 0.799341,0.807427 0.250112,0.246139 0.474505,0.344557 0.356431,-0.582247 -0.118074,-0.926803 -0.578989,-2.880764 -0.95524,-3.689202 z"
         style="fill:#ffffff;stroke:none;stroke-width:0.26458332px;stroke-linecap:butt;stroke-linejoin:miter;stroke-opacity:1" />
      <path
         inkscape:export-ydpi="96"
         inkscape:export-xdpi="96"
         sodipodi:nodetypes="cccsssccccccccsccsccsssccscscccsccccccscscccsccccscccccsscccccccccccscccccccccccccsccccsscccsscc"
         style="fill:#000000;stroke-width:0.13718022"
         d="m 48.260244,94.065041 c -1.849234,-0.354632 -3.320313,-1.15741 -4.751427,-2.59289 -1.731535,-1.736813 -2.512812,-3.632317 -2.517094,-6.10688 -0.0026,-1.470825 0.252295,-2.491181 0.991296,-3.969021 1.095851,-2.19147 3.213107,-3.848604 5.718085,-4.475437 1.2329,-0.308514 3.609508,-0.212549 4.766001,0.192449 2.54981,0.89293 4.478123,2.768991 5.507392,5.358174 0.332691,0.836899 0.361762,1.070384 0.361025,2.89931 -5.18e-4,1.810328 -0.03277,2.072236 -0.356463,2.91392 -0.51675,1.343669 -1.169133,2.363838 -2.119189,3.3139 -1.63038,1.63038 -3.456698,2.411081 -5.816279,2.486317 -0.792217,0.02525 -1.59472,0.01633 -1.783347,-0.01986 z m 4.147718,-1.420112 c 1.747157,-0.657786 3.253191,-2.006898 4.135436,-3.704545 1.156353,-2.225099 1.181224,-4.622068 0.07226,-6.964259 -0.586366,-1.238443 -2.158853,-2.80684 -3.446162,-3.437198 -1.027496,-0.50314 -2.432137,-0.845511 -3.468857,-0.845511 -3.100022,0 -6.332599,2.268049 -7.12692,5.000415 -0.393031,1.35199 -0.155346,1.878409 0.264096,0.584919 1.160677,-3.579312 4.979619,-5.749126 8.503289,-4.831324 1.169792,0.304693 2.327135,0.970142 3.225349,1.854518 1.831191,1.802981 2.314624,4.536746 0.964345,5.453252 -0.654634,0.444334 -1.479011,0.358376 -3.155147,-0.328999 -1.140316,-0.46764 -1.440385,-0.534513 -2.40065,-0.535011 -0.954593,-4.92e-4 -1.220161,0.05755 -2.04023,0.445931 -2.104911,0.996875 -3.041259,2.070023 -3.020743,3.462075 0.01317,0.895876 0.349059,1.622878 1.103598,2.388875 l 0.527866,0.535882 -0.60937,-0.330114 c -0.335154,-0.18156 -0.991198,-0.685063 -1.457873,-1.118898 -0.466676,-0.43383 -0.891095,-0.788784 -0.94315,-0.788784 -0.16261,0 0.07772,0.597098 0.42906,1.066013 0.506048,0.675388 2.142904,1.760534 3.174973,2.104823 1.680175,0.560494 3.760717,0.555734 5.26883,-0.01208 z m 0.861195,-1.42946 c 0.891194,-0.606535 1.419557,-1.1724 2.185088,-2.340196 0.3439,-0.524604 0.625272,-0.887476 0.625272,-0.806386 0,0.239531 -1.300656,2.141059 -1.730441,2.529859 -0.502092,0.454217 -1.445803,1.082289 -1.626191,1.082289 -0.07579,0 0.170034,-0.209506 0.546272,-0.465566 z m 2.342933,0.135317 c 0.769699,-0.769694 1.226466,-1.454695 1.566649,-2.349435 0.211658,-0.556714 0.06418,-0.38923 -0.486657,0.55266 -0.531641,0.90906 -1.878203,2.352162 -2.651935,2.842055 -0.613975,0.388738 -0.530863,0.439512 0.150472,0.09192 0.31919,-0.162838 0.958849,-0.674579 1.421471,-1.1372 z m -7.858766,-6.613929 c 0.656838,-0.364007 0.824264,-0.39496 2.136341,-0.39496 h 1.423643 l 0.955869,-1.646163 c 0.525724,-0.90539 1.076248,-1.843241 1.223381,-2.084104 l 0.267518,-0.437947 -0.723559,-0.487269 c -1.161953,-0.782506 -2.252081,-1.081802 -3.659236,-1.004642 -1.251063,0.0686 -2.488837,0.479933 -2.488837,0.827089 0,0.101088 0.369881,1.132638 0.821961,2.29233 0.45208,1.159697 0.807035,2.117624 0.788789,2.128729 -0.01825,0.0111 -0.310966,0.18027 -0.650491,0.375906 -0.78404,0.45179 -1.685608,1.227037 -2.083995,1.792016 -0.250746,0.355597 -0.158996,0.305559 0.48321,-0.263542 0.435992,-0.386363 1.113428,-0.880212 1.505406,-1.097443 z m 7.154016,-0.137226 c 0.31513,-0.120924 0.653815,-0.83765 0.550161,-1.164239 -0.137272,-0.432507 -0.748493,-0.287987 -1.062166,0.251145 -0.405065,0.69621 -0.142597,1.164286 0.512005,0.913094 z m -0.204611,-2.17225 c 0.188512,-0.227145 0.08155,-0.486139 -0.20078,-0.486139 -0.246857,0 -0.387359,0.235129 -0.290824,0.486699 0.09745,0.253939 0.280563,0.253727 0.491604,-5.19e-4 z M 44.109975,79.644656 c 0.755104,-0.73449 1.343232,-1.154554 2.256752,-1.611866 1.31161,-0.656593 1.369695,-0.819774 0.106863,-0.300193 -0.917491,0.377487 -1.787012,0.964983 -2.570892,1.737042 -0.596968,0.587962 -1.407518,1.676094 -1.399674,1.879005 0.0026,0.06186 0.135152,-0.07273 0.295024,-0.299073 0.159872,-0.226351 0.750241,-0.858561 1.311927,-1.404915 z M 41.862197,89.9578 c -0.36634,-0.447071 -0.576743,-0.599338 -0.736719,-0.533159 -0.589585,0.243912 -0.668954,0.212658 -1.095551,-0.431383 -0.237374,-0.358371 -0.43159,-0.702733 -0.43159,-0.765245 0,-0.121479 0.273621,-0.386011 0.815371,-0.788271 0.282109,-0.209475 0.332105,-0.355105 0.315452,-0.918896 l -0.01981,-0.66997 0.185215,0.823081 c 0.234409,1.041702 0.809773,2.567869 1.253588,3.325182 0.188384,0.32145 0.316484,0.584457 0.284665,0.584457 -0.03184,0 -0.288605,-0.28161 -0.570641,-0.625796 z M 40.46159,88.217233 c 0.392264,-0.182171 0.511565,-0.651605 0.165601,-0.651605 -0.231437,0 -0.754492,0.47551 -0.754492,0.685903 0,0.181316 0.142498,0.173015 0.588891,-0.03432 z"
         id="path924"
         inkscape:connector-curvature="0" />
      <g
         inkscape:export-ydpi="96"
         inkscape:export-xdpi="96"
         transform="matrix(-1.0219623,0.50677425,0.50677425,1.0219623,40.739027,-19.24384)"
         id="g922">
        <path
           style="opacity:1;fill:#b3b3b3;fill-opacity:1;stroke:none;stroke-width:1;stroke-linecap:round;stroke-linejoin:round;stroke-miterlimit:4;stroke-dasharray:none;stroke-opacity:1"
           d="m 39.159087,36.06226 c -3.887158,0.02965 -8.21063,0.640157 -11.606009,1.694987 -4.618561,1.43483 -6.47574,3.405645 -6.480741,6.876066 -0.0016,1.150839 0.31772,2.835629 1.407149,7.418668 l 0.643372,2.704745 -1.357024,0.767911 c -4.460449,2.524522 -7.139763,8.492209 -6.293673,14.017749 0.80419,5.251921 4.178477,8.711176 9.699667,9.944097 3.037271,0.678238 8.735478,0.407456 12.567708,-0.596863 0.830959,-0.21777 1.65463,-0.453755 2.420006,-0.686781 0.681025,-0.183235 1.341605,-0.378394 1.968873,-0.58601 4.710555,-1.55911 7.650287,-3.74214 10.222632,-5.902481 2.572346,-2.160342 4.77746,-4.298484 6.058027,-5.857523 0.949743,-1.156274 1.390055,-1.99408 1.631942,-2.763139 0.412417,-0.495006 0.717786,-1.64461 0.717786,-2.951242 0,-1.22323 -0.111265,-1.555104 -0.730705,-2.174544 -0.853901,-0.853901 -3.154627,-1.774489 -5.067906,-2.028301 l -1.345139,-0.178282 0.0052,0.02231 c -0.183533,-0.04738 -0.367382,-0.0946 -0.561205,-0.14056 0.09572,-1.07745 0.195318,-1.442107 0.307991,-2.723939 0.159891,-1.81901 0.519282,-4.550769 0.798402,-6.07043 0.7201,-3.92062 0.682498,-5.851938 -0.132292,-6.820255 -1.48436,-1.764051 -5.737561,-3.208266 -11.182779,-3.797186 -1.148249,-0.124179 -2.395529,-0.17898 -3.691249,-0.168981 z"
           id="path908"
           inkscape:connector-curvature="0"
           sodipodi:nodetypes="csccccscsccsscssccccscsccc" />
        <path
           sodipodi:nodetypes="csccccccccsscssccccsscccccscccccccsccccsscccsccsccsccscscccccccccccccccccccccsccccscscsccsscscscccccscccsscsccccccsscccccccsccsccccsssccccc"
           style="fill:#000000;stroke-width:0.26458332"
           d="m 25.171874,79.486215 c -5.52119,-1.23292 -8.89527,-4.69207 -9.69946,-9.944 -0.84609,-5.52554 1.83325,-11.49308 6.2937,-14.0176 l 1.35674,-0.76789 -0.643,-2.70496 c -1.08943,-4.58304 -1.40908,-6.26778 -1.40754,-7.41862 0.005,-3.47042 1.86225,-5.4414 6.48081,-6.87623 4.52718,-1.40645 10.70418,-2.02258 15.297174,-1.52584 5.44522,0.58892 9.69869,2.03322 11.18305,3.79728 0.81479,0.96832 0.85219,2.89939 0.13209,6.82001 -0.27912,1.51966 -0.63831,4.2513 -0.7982,6.07031 -0.15989,1.81901 -0.35664,4.04136 -0.43722,4.93856 -0.18373,2.04571 -1.22534,3.80606 -2.69603,4.55635 -1.23444,0.62976 -4.91018,1.68489 -7.99648,2.29541 -2.747508,0.5435 -9.321794,0.40016 -11.639674,-0.25378 -2.15097,-0.60685 -4.6654,-1.97001 -5.65569,-3.06614 -0.72696,-0.80466 -0.92905,-1.31676 -1.20936,-3.0646 -0.1851,-1.15418 -0.39221,-2.19051 -0.46024,-2.30295 -0.23546,-0.38917 -2.78776,1.24829 -3.93555,2.5249 -4.32016,4.80506 -4.40559,12.96933 -0.1812,17.31592 2.34166,2.4094 6.35147,3.31156 12.2357,2.75292 1.78716,-0.16967 3.29553,-0.26235 3.35193,-0.20594 0.15135,0.15135 -4.35074,0.69858 -6.01759,0.73143 l -1.43729,0.0283 1.19062,0.26662 c 2.40234,0.53797 10.45677,-0.77941 14.117874,-2.30911 0.56132,-0.23454 1.06964,-0.37737 1.12961,-0.3174 0.19665,0.19665 -2.885018,1.2675 -5.987064,2.08045 -3.83223,1.00432 -9.53044,1.2748 -12.56771,0.59656 z m 7.55766,-29.5441 0.31072,-3.10886 3.60644,-7.9e-4 c 6.310554,-10e-4 10.827844,-0.81453 14.304394,-2.57514 2.47009,-1.25091 2.77879,-1.86227 0.35405,-0.70116 -5.45963,2.6144 -18.615224,2.99725 -25.732634,0.74886 -1.94143,-0.61329 -2.6683,-1.09197 -2.99105,-1.96973 -0.0981,-0.26678 -0.15278,-0.20792 -0.16681,0.17954 -0.0288,0.79331 0.6268,1.37596 2.49144,2.21437 1.54054,0.69269 4.61724,1.57484 5.4926,1.57484 0.62543,0 0.68022,0.16938 1.12435,3.47575 0.22212,1.65359 0.48303,3.30419 0.5798,3.668 0.20908,0.786 0.18338,0.92978 0.6267,-3.50573 z m 5.39746,-8.65563 c 2.319726,-2.32312 4.132434,-4.30908 4.028274,-4.41325 -0.30291,-0.3029 -5.673784,-0.20019 -7.987554,0.15275 -2.79584,0.42648 -7.11483,1.51447 -8.58929,2.16372 -3.96011,1.74376 -3.18406,4.13185 1.7144,5.27565 1.21414,0.28351 5.28121,0.94821 6.21653,1.016 0.21999,0.016 2.29792,-1.87175 4.61764,-4.19487 z m 3.782124,-1.88146 c 1.41754,-1.02958 2.61703,-1.98208 2.66554,-2.11666 0.0485,-0.13458 -0.25194,-0.24469 -0.66767,-0.24469 -0.59308,0 -1.20902,0.45583 -2.860108,2.11667 -1.15734,1.16416 -2.016696,2.11666 -1.909686,2.11666 0.10701,0 1.354386,-0.84239 2.771924,-1.87198 z m -6.600394,38.73291 c 0.191,-0.0764 0.4192,-0.067 0.50712,0.0209 0.0879,0.0879 -0.0683,0.15045 -0.34727,0.13896 -0.30822,-0.0127 -0.37091,-0.0754 -0.15985,-0.15985 z m 1.32292,-0.26458 c 0.19099,-0.0764 0.4192,-0.067 0.50712,0.0209 0.0879,0.0879 -0.0684,0.15046 -0.34727,0.13897 -0.30822,-0.0127 -0.37092,-0.0754 -0.15985,-0.15985 z m -10.13685,-0.51653 c -0.29104,-0.0587 -1.22377,-0.24186 -2.07273,-0.40705 -1.91308,-0.37223 -4.27325,-1.85253 -5.28206,-3.31291 -3.22179,-4.66396 -2.47714,-11.13919 1.79963,-15.64885 0.91909,-0.96913 1.73292,-1.70099 1.80853,-1.62636 0.28488,0.28122 0.96787,7.38449 0.96818,10.06929 l 2.7e-4,2.79664 0.90593,1.05838 c 1.12265,1.31156 3.35459,2.52314 6.11482,3.31935 1.84293,0.53161 2.6967,0.60816 6.80373,0.6101 2.582996,0.001 4.696354,0.0282 4.696354,0.0599 0,0.0317 -0.982258,0.35633 -2.182808,0.72141 -6.354696,1.93239 -11.360566,2.80367 -13.559906,2.36014 z m 18.123964,-1.02253 c 0.3638,-0.20796 0.78052,-0.37812 0.92604,-0.37812 0.14552,0 -0.0331,0.17016 -0.39688,0.37812 -0.3638,0.20797 -0.78052,0.37813 -0.92604,0.37813 -0.14552,0 0.0331,-0.17016 0.39688,-0.37813 z m 1.32291,-0.50085 c 0,-0.0572 0.18478,-0.17489 0.41062,-0.26156 0.23546,-0.0904 0.34166,-0.046 0.24897,0.10399 -0.15538,0.25141 -0.65959,0.37185 -0.65959,0.15757 z m -12.170834,-2.18133 c -3.44024,-0.5023 -6.18961,-1.59102 -7.88434,-3.1221 -1.346,-1.21603 -1.55952,-1.91171 -1.7314,-5.64102 l -0.13728,-2.97863 0.83985,0.83985 c 0.99274,0.99274 3.34217,2.13616 5.73817,2.79265 1.32549,0.36318 2.72071,0.47138 6.08542,0.47195 4.875194,7.9e-4 6.619834,-0.26085 10.945314,-1.64161 2.30523,-0.73586 3.10345,-1.12801 4.02481,-1.97729 0.63211,-0.58266 1.22138,-1.28652 1.3095,-1.56415 0.0881,-0.27762 0.2824,-0.50476 0.43175,-0.50476 0.17336,0 0.23866,0.93538 0.18061,2.58687 -0.0805,2.28842 -0.19119,2.79033 -0.95988,4.35032 -0.62063,1.25953 -1.25178,2.06827 -2.20868,2.83016 -1.52419,1.21358 -4.00638,2.44258 -5.84608,2.89455 -2.28053,0.56027 -8.763194,0.95881 -10.787764,0.66321 z m 16.461064,-4.05411 c 1.1704,-1.07246 1.90762,-2.01091 2.30456,-2.93362 1.02158,-2.37472 1.04328,-6.39769 0.0242,-4.4936 -0.34836,0.65091 -2.22344,1.76215 -4.3404,2.57228 l -1.61717,0.61887 1.37047,-0.15848 1.37048,-0.15849 0.2817,1.01445 c 0.15492,0.55796 0.28169,1.13353 0.28169,1.27905 0,0.82787 -0.62594,2.22772 -1.33096,2.97656 -1.40602,1.49341 -0.17501,0.9602 1.65538,-0.71702 z m -1.37981,3.12047 c 0.21828,-0.21402 1.75396,-1.5716 3.41263,-3.01686 7.20885,-6.28135 9.33111,-10.92367 5.68942,-12.44527 -0.48564,-0.20291 -1.5714,-0.35726 -2.41282,-0.343 l -1.52985,0.0259 1.59782,0.31573 c 2.30343,0.45516 3.27799,0.91989 3.46138,1.65059 0.28859,1.14983 -1.16224,3.87535 -3.299,6.1975 -1.07634,1.16973 -1.99762,2.08615 -2.04729,2.03648 -0.0497,-0.0497 0.0825,-0.7396 0.29369,-1.5332 0.48664,-1.8286 0.48621,-3.65717 -10e-4,-5.67624 -0.21083,-0.87312 -0.38756,-2.16838 -0.39274,-2.87835 l -0.009,-1.29087 1.34528,0.17846 c 1.91328,0.25381 4.21372,1.17467 5.06762,2.02857 0.61944,0.61944 0.73085,0.95087 0.73085,2.1741 0,1.8287 -0.59734,3.35772 -1.25064,3.20128 -0.31651,-0.0758 -0.7274,0.24139 -1.2629,0.97489 -1.19483,1.6366 -6.14015,6.30337 -8.07971,7.6246 -0.94043,0.64062 -1.53128,0.98967 -1.313,0.77566 z"
           id="path912"
           inkscape:connector-curvature="0" />
      </g>
    </g>
  </g>
</svg>
